<svg width="198" height="33" viewBox="0 0 198 33" fill="none" xmlns="http://www.w3.org/2000/svg">
<path d="M20.4222 0.291016L24.8378 11.5607H39.127L27.5668 18.5258L31.9824 29.7955L20.4222 22.8305L8.86191 29.7955L13.2775 18.5258L1.71729 11.5607H16.0065L20.4222 0.291016Z" fill="#FF9465"/>
<path d="M59.7571 0.291016L64.1727 11.5607H78.4619L66.9017 18.5258L71.3173 29.7955L59.7571 22.8305L48.1968 29.7955L52.6124 18.5258L41.0522 11.5607H55.3414L59.7571 0.291016Z" fill="#FF9465"/>
<path d="M99.092 0.291016L103.508 11.5607H117.797L106.237 18.5258L110.652 29.7955L99.092 22.8305L87.5317 29.7955L91.9474 18.5258L80.3871 11.5607H94.6764L99.092 0.291016Z" fill="#FF9465"/>
<path d="M139.696 0.291016L144.111 11.5607H158.401L146.84 18.5258L151.256 29.7955L139.696 22.8305L128.136 29.7955L132.551 18.5258L120.991 11.5607H135.28L139.696 0.291016Z" fill="#FF9465"/>
<path d="M177.762 0.291016L182.177 11.5607H196.467L184.906 18.5258L189.322 29.7955L177.762 22.8305L166.202 29.7955L170.617 18.5258L159.057 11.5607H173.346L177.762 0.291016Z" fill="#FF9465"/>
</svg>
